<svg width="0" height="0" class="hidden">
  <symbol xmlns="http://www.w3.org/2000/svg" fill="currentColor" viewBox="0 0 16 16" id="cart-check">
    <path d="M.5 1a.5.5 0 0 0 0 1h1.11l.401 1.607 1.498 7.985A.5.5 0 0 0 4 12h1a2 2 0 1 0 0 4 2 2 0 0 0 0-4h7a2 2 0 1 0 0 4 2 2 0 0 0 0-4h1a.5.5 0 0 0 .491-.408l1.5-8A.5.5 0 0 0 14.5 3H2.89l-.405-1.621A.5.5 0 0 0 2 1H.5zM6 14a1 1 0 1 1-2 0 1 1 0 0 1 2 0zm7 0a1 1 0 1 1-2 0 1 1 0 0 1 2 0zm-1.646-7.646-3 3a.5.5 0 0 1-.708 0l-1.5-1.5a.5.5 0 1 1 .708-.708L8 8.293l2.646-2.647a.5.5 0 0 1 .708.708z"></path>
  </symbol>
  <symbol xmlns="http://www.w3.org/2000/svg" fill="currentColor" viewBox="0 0 16 16" id="cart-plus">
    <path d="M9 5.5a.5.5 0 0 0-1 0V7H6.5a.5.5 0 0 0 0 1H8v1.5a.5.5 0 0 0 1 0V8h1.5a.5.5 0 0 0 0-1H9V5.5z"></path>
    <path d="M.5 1a.5.5 0 0 0 0 1h1.11l.401 1.607 1.498 7.985A.5.5 0 0 0 4 12h1a2 2 0 1 0 0 4 2 2 0 0 0 0-4h7a2 2 0 1 0 0 4 2 2 0 0 0 0-4h1a.5.5 0 0 0 .491-.408l1.5-8A.5.5 0 0 0 14.5 3H2.89l-.405-1.621A.5.5 0 0 0 2 1H.5zm3.915 10L3.102 4h10.796l-1.313 7h-8.17zM6 14a1 1 0 1 1-2 0 1 1 0 0 1 2 0zm7 0a1 1 0 1 1-2 0 1 1 0 0 1 2 0z"></path>
  </symbol>
   <symbol xmlns="http://www.w3.org/2000/svg" fill="currentColor" viewBox="0 0 16 16" id="cart">
    <path d="M0 1.5A.5.5 0 0 1 .5 1H2a.5.5 0 0 1 .485.379L2.89 3H14.5a.5.5 0 0 1 .491.592l-1.5 8A.5.5 0 0 1 13 12H4a.5.5 0 0 1-.491-.408L2.01 3.607 1.61 2H.5a.5.5 0 0 1-.5-.5zM3.102 4l1.313 7h8.17l1.313-7H3.102zM5 12a2 2 0 1 0 0 4 2 2 0 0 0 0-4zm7 0a2 2 0 1 0 0 4 2 2 0 0 0 0-4zm-7 1a1 1 0 1 1 0 2 1 1 0 0 1 0-2zm7 0a1 1 0 1 1 0 2 1 1 0 0 1 0-2z"></path>
  </symbol>
    <symbol xmlns="http://www.w3.org/2000/svg" fill="currentColor" viewBox="0 0 16 16" id="cart-x">
    <path d="M7.354 5.646a.5.5 0 1 0-.708.708L7.793 7.5 6.646 8.646a.5.5 0 1 0 .708.708L8.5 8.207l1.146 1.147a.5.5 0 0 0 .708-.708L9.207 7.5l1.147-1.146a.5.5 0 0 0-.708-.708L8.5 6.793 7.354 5.646z"></path>
    <path d="M.5 1a.5.5 0 0 0 0 1h1.11l.401 1.607 1.498 7.985A.5.5 0 0 0 4 12h1a2 2 0 1 0 0 4 2 2 0 0 0 0-4h7a2 2 0 1 0 0 4 2 2 0 0 0 0-4h1a.5.5 0 0 0 .491-.408l1.5-8A.5.5 0 0 0 14.5 3H2.89l-.405-1.621A.5.5 0 0 0 2 1H.5zm3.915 10L3.102 4h10.796l-1.313 7h-8.17zM6 14a1 1 0 1 1-2 0 1 1 0 0 1 2 0zm7 0a1 1 0 1 1-2 0 1 1 0 0 1 2 0z"></path>
  </symbol>
</svg>